<svg width="81" height="17" viewBox="0 0 81 17" fill="none" xmlns="http://www.w3.org/2000/svg">
<g clip-path="url(#clip0_99_314)">
<path d="M9 -0.5L11.0206 5.71885H17.5595L12.2694 9.56231L14.2901 15.7812L9 11.9377L3.70993 15.7812L5.73056 9.56231L0.440492 5.71885H6.97937L9 -0.5Z" fill="#FFC064"/>
<path d="M27 -0.5L29.0206 5.71885H35.5595L30.2694 9.56231L32.2901 15.7812L27 11.9377L21.7099 15.7812L23.7306 9.56231L18.4405 5.71885H24.9794L27 -0.5Z" fill="#FFC064"/>
<path d="M45 -0.5L47.0206 5.71885H53.5595L48.2694 9.56231L50.2901 15.7812L45 11.9377L39.7099 15.7812L41.7306 9.56231L36.4405 5.71885H42.9794L45 -0.5Z" fill="#FFC064"/>
<path d="M63 -0.5L65.0206 5.71885H71.5595L66.2694 9.56231L68.2901 15.7812L63 11.9377L57.7099 15.7812L59.7306 9.56231L54.4405 5.71885H60.9794L63 -0.5Z" fill="#FFC064"/>
<path d="M81 -0.5L83.0206 5.71885H89.5595L84.2694 9.56231L86.2901 15.7812L81 11.9377L75.7099 15.7812L77.7306 9.56231L72.4405 5.71885H78.9794L81 -0.5Z" fill="#FFC064"/>
</g>
<defs>
<clipPath id="clip0_99_314">
<rect width="81" height="17" fill="white"/>
</clipPath>
</defs>
</svg>
