<svg width="15" height="16" viewBox="0 0 15 16" fill="none" xmlns="http://www.w3.org/2000/svg">
<path d="M11.2857 8.71429C11.4752 8.71429 11.6568 8.63903 11.7908 8.50508C11.9247 8.37112 12 8.18944 12 8C12 7.81056 11.9247 7.62888 11.7908 7.49492C11.6568 7.36097 11.4752 7.28571 11.2857 7.28571H7.71429V3.71429C7.71429 3.52485 7.63903 3.34316 7.50508 3.20921C7.37112 3.07526 7.18944 3 7 3C6.81056 3 6.62888 3.07526 6.49492 3.20921C6.36097 3.34316 6.28571 3.52485 6.28571 3.71429V7.28571H2.71429C2.52485 7.28571 2.34316 7.36097 2.20921 7.49492C2.07526 7.62888 2 7.81056 2 8C2 8.18944 2.07526 8.37112 2.20921 8.50508C2.34316 8.63903 2.52485 8.71429 2.71429 8.71429H6.28571V12.2857C6.28571 12.4752 6.36097 12.6568 6.49492 12.7908C6.62888 12.9247 6.81056 13 7 13C7.18944 13 7.37112 12.9247 7.50508 12.7908C7.63903 12.6568 7.71429 12.4752 7.71429 12.2857V8.71429H11.2857Z" fill="white" stroke="white" stroke-width="0.5"/>
</svg>
