<svg width="22" height="22" viewBox="0 0 22 22" fill="none" xmlns="http://www.w3.org/2000/svg">
<path d="M16.6159 13.0798C15.0868 13.0798 13.8428 14.3238 13.8428 15.853C13.8428 17.3821 15.0868 18.6261 16.6159 18.6261C18.1453 18.6261 19.389 17.3821 19.389 15.853C19.389 14.3238 18.145 13.0798 16.6159 13.0798ZM16.6159 17.2395C15.8512 17.2395 15.2293 16.6176 15.2293 15.853C15.2293 15.0883 15.8512 14.4664 16.6159 14.4664C17.3806 14.4664 18.0024 15.0883 18.0024 15.853C18.0024 16.6177 17.3806 17.2395 16.6159 17.2395Z" fill="#1E293B"/>
<path d="M7.1403 13.0798C5.61118 13.0798 4.36719 14.3238 4.36719 15.853C4.36719 17.3821 5.61118 18.6261 7.1403 18.6261C8.66943 18.6261 9.91342 17.3821 9.91342 15.853C9.91342 14.3238 8.66943 13.0798 7.1403 13.0798ZM7.1403 17.2395C6.37563 17.2395 5.75375 16.6176 5.75375 15.853C5.75375 15.0883 6.37563 14.4664 7.1403 14.4664C7.90476 14.4664 8.52686 15.0883 8.52686 15.853C8.52686 16.6177 7.90498 17.2395 7.1403 17.2395Z" fill="#1E293B"/>
<path d="M18.4827 5.14228C18.3649 4.90818 18.1252 4.7605 17.8632 4.7605H14.2119V6.14706H17.4356L19.3234 9.90184L20.5626 9.27879L18.4827 5.14228Z" fill="#1E293B"/>
<path d="M14.5358 15.1829H9.29004V16.5694H14.5358V15.1829Z" fill="#1E293B"/>
<path d="M5.06045 15.1829H2.65712C2.27419 15.1829 1.96387 15.4932 1.96387 15.8761C1.96387 16.2591 2.27423 16.5694 2.65712 16.5694H5.0605C5.44343 16.5694 5.75375 16.259 5.75375 15.8761C5.75375 15.4932 5.44339 15.1829 5.06045 15.1829Z" fill="#1E293B"/>
<path d="M21.854 10.9446L20.4903 9.1883C20.3593 9.01913 20.1571 8.92021 19.9429 8.92021H14.905V4.06728C14.905 3.68434 14.5947 3.37402 14.2118 3.37402H2.65712C2.27419 3.37402 1.96387 3.68439 1.96387 4.06728C1.96387 4.45018 2.27423 4.76054 2.65712 4.76054H13.5185V9.61347C13.5185 9.99641 13.8288 10.3067 14.2117 10.3067H19.6034L20.613 11.6073V15.1828H18.6949C18.312 15.1828 18.0017 15.4931 18.0017 15.876C18.0017 16.259 18.312 16.5693 18.6949 16.5693H21.3062C21.6892 16.5693 21.9995 16.2589 21.9996 15.876V11.3698C21.9996 11.2159 21.9482 11.0662 21.854 10.9446Z" fill="#1E293B"/>
<path d="M5.01517 11.6702H1.82607C1.44313 11.6702 1.13281 11.9805 1.13281 12.3634C1.13281 12.7464 1.44318 13.0567 1.82607 13.0567H5.01513C5.39806 13.0567 5.70838 12.7463 5.70838 12.3634C5.70843 11.9805 5.39806 11.6702 5.01517 11.6702Z" fill="#1E293B"/>
<path d="M6.60924 8.94336H0.693258C0.310363 8.94336 0 9.25372 0 9.63666C0 10.0196 0.310363 10.3299 0.693258 10.3299H6.60924C6.99218 10.3299 7.3025 10.0196 7.3025 9.63666C7.3025 9.25377 6.99218 8.94336 6.60924 8.94336Z" fill="#1E293B"/>
<path d="M7.74205 6.21631H1.82607C1.44313 6.21631 1.13281 6.52667 1.13281 6.90957C1.13281 7.2925 1.44318 7.60282 1.82607 7.60282H7.74205C8.12499 7.60282 8.43531 7.29246 8.43531 6.90957C8.43535 6.52667 8.12499 6.21631 7.74205 6.21631Z" fill="#1E293B"/>
</svg>
