<svg width="20" height="20" viewBox="0 0 20 20" fill="none" xmlns="http://www.w3.org/2000/svg">
<rect width="20" height="20" rx="5" fill="#2563EB"/>
<path d="M15.8482 8.98935L14.9362 6.32935C14.8039 5.94207 14.5494 5.60518 14.2089 5.36653C13.8684 5.12789 13.4592 4.99964 13.0395 5H6.96083C6.54109 4.99964 6.1319 5.12789 5.79142 5.36653C5.45093 5.60518 5.19646 5.94207 5.06416 6.32935L4.15216 8.98935C3.90964 9.088 3.70254 9.25419 3.55688 9.46691C3.41121 9.67969 3.3335 9.92962 3.3335 10.1852V13.4259C3.3335 13.9043 3.60283 14.3178 4.00016 14.5427V16.0185C4.00016 16.1904 4.0704 16.3553 4.19542 16.4768C4.32045 16.5984 4.49002 16.6667 4.66683 16.6667H5.3335C5.51031 16.6667 5.67988 16.5984 5.8049 16.4768C5.92992 16.3553 6.00016 16.1904 6.00016 16.0185V14.7222H14.0002V16.0185C14.0002 16.1904 14.0704 16.3553 14.1954 16.4768C14.3204 16.5984 14.49 16.6667 14.6668 16.6667H15.3335C15.5103 16.6667 15.6799 16.5984 15.8049 16.4768C15.9299 16.3553 16.0002 16.1904 16.0002 16.0185V14.5427C16.2024 14.4299 16.3706 14.2673 16.4876 14.0712C16.6046 13.8752 16.6664 13.6526 16.6668 13.4259V10.1852C16.6668 9.92962 16.5891 9.67969 16.4434 9.46691C16.2978 9.25419 16.0907 9.088 15.8482 8.98935ZM6.96083 6.2963H13.0388C13.3262 6.2963 13.5808 6.47389 13.6715 6.73963L14.4088 8.88889H5.5915L6.32816 6.73963C6.3724 6.61052 6.45731 6.49821 6.57086 6.41864C6.68442 6.33907 6.82086 6.29626 6.96083 6.2963ZM5.66683 12.7778C5.53546 12.7777 5.4054 12.7526 5.28404 12.7036C5.1627 12.6547 5.05244 12.583 4.95958 12.4927C4.86672 12.4024 4.79308 12.2951 4.74285 12.1771C4.69262 12.0591 4.66678 11.9326 4.66683 11.8049C4.66688 11.6772 4.69279 11.5507 4.7431 11.4327C4.79342 11.3148 4.86714 11.2076 4.96006 11.1173C5.05298 11.027 5.16328 10.9554 5.28466 10.9066C5.40604 10.8578 5.53613 10.8326 5.6675 10.8327C5.9328 10.8328 6.1872 10.9353 6.37474 11.1177C6.56228 11.3002 6.66758 11.5476 6.6675 11.8056C6.66741 12.0635 6.56193 12.3109 6.37427 12.4932C6.18661 12.6755 5.93214 12.7778 5.66683 12.7778ZM14.3335 12.7778C14.2022 12.7777 14.072 12.7526 13.9507 12.7036C13.8294 12.6547 13.7191 12.583 13.6262 12.4927C13.5334 12.4024 13.4598 12.2951 13.4095 12.1771C13.3593 12.0591 13.3334 11.9326 13.3335 11.8049C13.3336 11.6772 13.3594 11.5507 13.4098 11.4327C13.4601 11.3148 13.5338 11.2076 13.6267 11.1173C13.7196 11.027 13.83 10.9554 13.9513 10.9066C14.0727 10.8578 14.2028 10.8326 14.3342 10.8327C14.5995 10.8328 14.8539 10.9353 15.0414 11.1177C15.229 11.3002 15.3342 11.5476 15.3342 11.8056C15.3341 12.0635 15.2286 12.3109 15.041 12.4932C14.8533 12.6755 14.5988 12.7778 14.3335 12.7778Z" fill="white"/>
</svg>
