<svg width="24" height="24" viewBox="0 0 24 24" fill="none" xmlns="http://www.w3.org/2000/svg">
<path fill-rule="evenodd" clip-rule="evenodd" d="M15.7866 6.66473H20.5922C21.0862 6.66473 21.5075 6.92812 21.6861 7.34873L23.5456 11.7271C23.6006 11.8567 23.625 11.9755 23.625 12.1144V17.5314C23.625 17.9187 23.3092 18.2346 22.9219 18.2346H22.3777C22.3777 16.6556 21.0973 15.3752 19.5183 15.3752C17.9394 15.3752 16.659 16.6556 16.659 18.2346H15.7866V6.66473ZM6.03155 16.1252C7.19653 16.1252 8.14092 17.0696 8.14092 18.2346C8.14092 19.3995 7.19653 20.3439 6.03155 20.3439C4.86656 20.3439 3.92217 19.3995 3.92217 18.2346C3.92222 17.0696 4.86656 16.1252 6.03155 16.1252ZM6.03155 17.1799C5.44866 17.1799 4.97691 17.6517 4.97691 18.2346C4.97691 18.8175 5.44866 19.2893 6.03155 19.2893C6.61444 19.2893 7.08623 18.8175 7.08623 18.2346C7.08628 17.6517 6.61448 17.1799 6.03155 17.1799ZM19.5183 16.1252C18.3533 16.1252 17.409 17.0696 17.409 18.2346C17.409 19.3995 18.3533 20.3439 19.5183 20.3439C20.6833 20.3439 21.6277 19.3995 21.6277 18.2346C21.6277 17.0696 20.6833 16.1252 19.5183 16.1252ZM19.5183 17.1799C18.9354 17.1799 18.4636 17.6517 18.4636 18.2346C18.4636 18.8175 18.9354 19.2893 19.5183 19.2893C20.1013 19.2893 20.573 18.8175 20.573 18.2346C20.573 17.6517 20.1012 17.1799 19.5183 17.1799ZM0.375 17.2971C0.375 17.8134 0.796125 18.2346 1.31245 18.2346H3.17217C3.17217 16.6557 4.45261 15.3752 6.03155 15.3752C7.61048 15.3752 8.89092 16.6557 8.89092 18.2346H15.0366V10.6394H0.375V17.2971ZM0.375 8.60025V4.5937C0.375 4.07737 0.796125 3.65625 1.31245 3.65625H14.0991C14.6154 3.65625 15.0366 4.07742 15.0366 4.5937V8.60025H0.375ZM21.8573 11.4384L20.5633 8.39133C20.4882 8.21447 20.324 8.10581 20.1318 8.10581H17.3215C17.0633 8.10581 16.8527 8.31637 16.8527 8.57456V11.2956C16.8527 11.5538 17.0633 11.7644 17.3215 11.7644H21.6416C21.7227 11.7644 21.7923 11.7269 21.837 11.6594C21.8818 11.5918 21.889 11.513 21.8573 11.4384Z" fill="#2563EB"/>
</svg>
