<svg width="18" height="18" viewBox="0 0 18 18" fill="none" xmlns="http://www.w3.org/2000/svg">
<path fill-rule="evenodd" clip-rule="evenodd" d="M15.2868 0.75H2.71373C1.23059 0.75 0.0170994 1.86237 0.0170994 3.22192V11.4719C0.0170994 12.8314 1.23059 13.9438 2.71373 13.9438H3.59014V16.4157C3.59014 16.7556 3.82609 17.0337 4.16317 17.1882C4.26431 17.2191 4.39912 17.25 4.50026 17.25C4.7362 17.25 4.97218 17.1573 5.14072 17.0028L8.44409 13.9438H15.2868C16.7699 13.9438 17.9834 12.8315 17.9834 11.4719V3.22192C17.9834 1.86237 16.7699 0.75 15.2868 0.75ZM2.68003 12.3062C2.17441 12.3062 1.76992 11.9354 1.76992 11.4719V3.22192C1.76992 2.75843 2.17441 2.38765 2.68003 2.38765H15.2868C15.7924 2.38765 16.1969 2.75843 16.1969 3.22192V11.4719C16.1969 11.9354 15.7924 12.3062 15.2868 12.3062H8.10697C7.87103 12.3062 7.63505 12.3989 7.46651 12.5533L5.41034 14.4382V13.1404C5.41034 12.6769 5.00585 12.3061 4.50023 12.3061C4.50026 12.3062 2.68003 12.3062 2.68003 12.3062Z" fill="#64748B"/>
</svg>
