<svg width="20" height="20" viewBox="0 0 20 20" fill="none" xmlns="http://www.w3.org/2000/svg">
<g clip-path="url(#clip0_109_1265)">
<path d="M12.5092 4.19658C12.3188 4.19658 12.1467 4.2679 12.0119 4.38183L12.0048 4.37477L5.9306 10.4281C5.24225 11.1163 4.96002 11.7877 4.9564 12.7462C4.9564 13.4959 5.23341 14.1702 5.73621 14.6451C6.25552 15.1353 6.97674 15.3944 7.82225 15.3943H7.83999C8.72007 15.3903 9.5436 15.044 10.1581 14.4201L17.2062 7.37364C18.9913 5.58834 19.0382 3.04397 17.3176 1.32327C16.4643 0.469978 15.3281 0 14.1183 0C12.9086 0 11.7727 0.469979 10.92 1.32334L2.09243 10.1497C-0.158087 12.4002 -0.158087 16.0623 2.09243 18.3128C3.18086 19.4009 4.63023 20 6.17353 20C7.71685 20 9.16633 19.4009 10.2552 18.3126L19.394 9.14156C19.394 9.14156 19.5954 8.94359 19.5954 8.60967C19.5954 8.18182 19.2484 7.83488 18.8206 7.83488C18.6173 7.83488 18.4336 7.915 18.2953 8.04323L18.293 8.04087L9.15407 17.2121C8.35917 18.0065 7.30061 18.4441 6.17336 18.4441C5.04612 18.4441 3.98772 18.0065 3.19312 17.2121C1.54956 15.5679 1.54956 12.8936 3.19312 11.2505L12.0207 2.42433C12.5801 1.86496 13.325 1.55697 14.1183 1.55697C14.9117 1.55697 15.6571 1.86509 16.2169 2.42433C16.7752 2.98261 17.0558 3.64582 17.0286 4.34256C17.0018 5.02825 16.6827 5.69574 16.1055 6.27285L9.04263 13.3342C8.71974 13.6575 8.29045 13.8363 7.83447 13.8374C6.96711 13.8374 6.51333 13.2909 6.51333 12.7519C6.51508 12.2963 6.69372 11.8672 7.0166 11.5438L13.1056 5.47575L13.0987 5.46885C13.2126 5.33401 13.284 5.16197 13.284 4.97153C13.284 4.54336 12.9371 4.19658 12.5092 4.19658Z" fill="#64748B"/>
</g>
<defs>
<clipPath id="clip0_109_1265">
<rect width="20" height="20" fill="white"/>
</clipPath>
</defs>
</svg>
