<svg width="22" height="22" viewBox="0 0 22 22" fill="none" xmlns="http://www.w3.org/2000/svg">
<mask id="mask0_99_42" style="mask-type:luminance" maskUnits="userSpaceOnUse" x="0" y="0" width="22" height="22">
<path d="M0 1.90735e-06H22V22H0V1.90735e-06Z" fill="white"/>
</mask>
<g mask="url(#mask0_99_42)">
<path d="M11.0797 7.54113C11.0797 9.67105 9.38971 11.3977 7.30495 11.3977C5.22028 11.3977 3.53027 9.67105 3.53027 7.54113C3.53027 5.41117 5.22028 3.68451 7.30495 3.68451C9.38971 3.68451 11.0797 5.41117 11.0797 7.54113Z" stroke="#1E293B" stroke-width="1.3" stroke-miterlimit="10"/>
<path d="M1.68792 18.2939C1.04481 18.2939 0.549253 17.7016 0.664066 17.055C1.23529 13.8377 3.99135 11.3978 7.30519 11.3978C10.619 11.3978 13.375 13.8377 13.9463 17.055C14.0611 17.7016 13.5656 18.2939 12.9224 18.2939H1.68792Z" stroke="#1E293B" stroke-width="1.3" stroke-miterlimit="10"/>
<path d="M19.1262 7.00505C19.1262 8.65385 17.8181 9.99048 16.2042 9.99048C14.5905 9.99048 13.2822 8.65385 13.2822 7.00505C13.2822 5.3563 14.5905 4.01967 16.2042 4.01967C17.8181 4.01967 19.1262 5.3563 19.1262 7.00505Z" stroke="#1E293B" stroke-width="1.3" stroke-miterlimit="10"/>
<path d="M11.5391 12.9228C12.4002 11.1831 14.1661 9.99031 16.2046 9.99031C18.7698 9.99031 20.9033 11.879 21.3455 14.3696C21.4344 14.8701 21.0508 15.3286 20.5529 15.3286H13.4008" stroke="#1E293B" stroke-width="1.3" stroke-miterlimit="10"/>
</g>
</svg>
