<svg width="50" height="50" viewBox="0 0 50 50" fill="none" xmlns="http://www.w3.org/2000/svg">
<circle cx="25" cy="25" r="25" fill="#F8EDED"/>
<mask id="mask0_109_828" style="mask-type:alpha" maskUnits="userSpaceOnUse" x="0" y="0" width="50" height="50">
<circle cx="25" cy="25" r="25" fill="#EDF2F8"/>
</mask>
<g mask="url(#mask0_109_828)">
<mask id="mask1_109_828" style="mask-type:alpha" maskUnits="userSpaceOnUse" x="0" y="0" width="50" height="50">
<circle cx="25" cy="25" r="25" fill="#F8EDF0"/>
</mask>
<g mask="url(#mask1_109_828)">
</g>
<path d="M33.8271 43.0098C36.9605 43.5167 40.369 43.9729 40.9324 48.233C41.035 48.9876 40.5398 49.6941 39.7955 49.855C38.4982 50.1232 37.1883 50.3263 35.8707 50.4633L33.8271 43.0098Z" fill="#E5B3B4"/>
<path d="M37.3262 38.573C36.6209 40.0723 36.1659 41.6769 35.9793 43.3233C35.7391 45.6934 35.7028 48.0797 35.8707 50.4561V50.4705C35.8707 50.6661 35.8779 50.8471 35.8779 50.9992C35.5412 50.8772 35.2123 50.7345 34.8931 50.5719C34.8931 50.5679 34.8899 50.5647 34.8859 50.5647C33.6548 49.9564 14.6824 43.0336 12.5607 43.8302C12.5498 43.832 12.5397 43.8371 12.5317 43.8447C14.61 38.1457 11.1559 35.0464 9.80896 26.8709C8.36069 18.1016 11.9814 11.5192 16.3262 10.0564C19.831 8.88331 21.3952 10.0564 21.3952 10.0564C21.3952 10.0564 24.3859 8.28227 30.0848 9.33227C38.0503 10.7878 39.1945 15.9436 40.2228 23.2212C40.9469 28.3336 39.8534 33.4605 37.3262 38.573Z" fill="#EF9597"/>
<path d="M14.1611 24.351C13.7628 24.1313 13.2821 24.1208 12.8746 24.3231C12.4671 24.5254 12.1848 24.9147 12.1191 25.3648C11.5108 27.5155 13.017 30.1441 15.2546 29.992L14.1611 24.351Z" fill="#E5B3B4"/>
<path d="M34.8932 50.5719C32.4601 50.8109 29.2087 50.9992 25.0159 50.9992C21.837 50.9992 19.2011 50.8905 17.0504 50.7312C16.5363 50.695 16.0584 50.6588 15.6021 50.6154C13.8002 50.4669 12.0085 50.213 10.2363 49.855C9.49194 49.6941 8.99673 48.9876 9.09939 48.233C9.23645 46.2051 10.5967 44.4661 12.5318 43.8447C12.5398 43.8371 12.5499 43.832 12.5608 43.8302C13.5484 43.4913 14.5671 43.2512 15.6021 43.1133C16.0946 43.0337 16.5797 42.954 17.0504 42.8671C17.7845 42.7553 18.5052 42.5685 19.2011 42.3095C20.681 41.6852 21.6445 40.237 21.6487 38.6309C21.6821 38.1484 21.6748 37.6639 21.627 37.1826H28.4049C28.3572 37.6639 28.3499 38.1484 28.3832 38.6309C28.4182 39.8496 28.9714 40.9955 29.9039 41.7809C29.9121 43.4323 30.2188 45.0686 30.809 46.6109C31.6201 48.6674 33.6549 49.9564 34.8859 50.5647C34.8899 50.5647 34.8932 50.5679 34.8932 50.5719Z" fill="#F2C7C8"/>
<path d="M35.8708 24.351C36.2691 24.1313 36.7499 24.1208 37.1573 24.3231C37.5648 24.5254 37.8471 24.9147 37.9129 25.3648C38.5211 27.5155 37.0149 30.1441 34.7773 29.992L35.8708 24.351Z" fill="#E5B3B4"/>
<mask id="mask2_109_828" style="mask-type:alpha" maskUnits="userSpaceOnUse" x="9" y="37" width="26" height="14">
<path d="M34.8932 50.5719C32.4601 50.8109 29.2087 50.9992 25.0159 50.9992C21.837 50.9992 19.2011 50.8905 17.0504 50.7312C16.5363 50.695 16.0584 50.6588 15.6021 50.6154C13.8002 50.4669 12.0085 50.213 10.2363 49.855C9.49194 49.6941 8.99673 48.9876 9.09939 48.233C9.23645 46.2051 10.5967 44.4661 12.5318 43.8447C12.5398 43.8371 12.5499 43.832 12.5608 43.8302C13.5484 43.4913 14.5671 43.2512 15.6021 43.1133C16.0946 43.0337 16.5797 42.954 17.0504 42.8671C17.7845 42.7553 18.5052 42.5685 19.2011 42.3095C20.681 41.6852 21.6445 40.237 21.6487 38.6309C21.6821 38.1484 21.6748 37.6639 21.627 37.1826H28.4049C28.3572 37.6639 28.3499 38.1484 28.3832 38.6309C28.4182 39.8496 28.9714 40.9955 29.9039 41.7809C29.9121 43.4323 30.2188 45.0686 30.809 46.6109C31.6201 48.6674 33.6549 49.9564 34.8859 50.5647C34.8899 50.5647 34.8932 50.5679 34.8932 50.5719Z" fill="#F2C7C8"/>
</mask>
<g mask="url(#mask2_109_828)">
<path d="M32.5001 47C18.9001 49.4 15.5001 44 15.5001 41H12C11.5 41 7.00008 43.5 6.50008 44C6.00008 44.5 9.00008 50 9.50008 50.5C9.90008 50.9 22.3334 52.6667 28.5001 53.5C35.5001 50.3333 46.1001 44.6 32.5001 47Z" fill="#E5B3B4"/>
<path d="M30.5 39C28.3763 40.0428 22.1237 40.0428 20 39C20.0334 38.5175 21.6747 37.6639 21.6269 37.1826H28.4048C28.3571 37.6639 30.4667 38.5175 30.5 39Z" fill="#E5B3B4"/>
</g>
<path d="M35.878 23.4819V24.1626C35.878 28.0005 34.4297 31.8312 32.2573 34.134C30.0848 36.4367 27.9124 37.9646 25.0159 37.9646C22.1193 37.9646 19.9469 36.4295 17.7745 34.134C15.6021 31.8384 14.1538 28.0005 14.1538 24.1626C14.1538 23.8657 14.1538 23.214 14.1466 22.6129C14.1401 21.784 14.4911 20.9924 15.1097 20.4405L21.3952 14.7922C21.3952 14.7922 23.488 20.3753 29.73 20.5781C30.6931 21.8598 32.4962 23.1415 35.878 23.4819Z" fill="#F2C7C8"/>
</g>
</svg>
