<svg width="20" height="20" viewBox="0 0 20 20" fill="none" xmlns="http://www.w3.org/2000/svg">
<path d="M11.5076 20H9.5H7.49236C7.18791 20 6.94081 19.7206 6.94081 19.375C6.94081 19.0294 7.18791 18.75 7.49236 18.75H8.94845L8.949 16.355C5.62151 16.0919 3 13.4706 3 10.2863C3 9.94063 3.24709 9.66125 3.55155 9.66125C3.856 9.66125 4.1031 9.94063 4.1031 10.2863C4.1031 12.9556 6.52439 15.1269 9.50055 15.1269C12.4762 15.1269 14.8969 12.955 14.8969 10.2863C14.8969 9.94063 15.1434 9.66125 15.4485 9.66125C15.7535 9.66125 16 9.94063 16 10.2863C16 13.4706 13.3785 16.0919 10.0521 16.355L10.0515 18.75H11.5076C11.8126 18.75 12.0592 19.0294 12.0592 19.375C12.0592 19.7206 11.8121 20 11.5076 20ZM9.5 13.3138C7.40136 13.3138 5.69431 11.765 5.69431 9.8625V3.45063C5.69431 1.54813 7.40136 0 9.5 0C11.5986 0 13.3057 1.54813 13.3057 3.45063V9.86188C13.3057 11.765 11.5986 13.3138 9.5 13.3138ZM9.5 1.25C8.00972 1.25 6.79741 2.2375 6.79741 3.45063V9.86188C6.79741 11.0756 8.00972 12.0631 9.5 12.0631C10.9903 12.0631 12.2026 11.0756 12.2026 9.86188V3.45063C12.2026 2.2375 10.9903 1.25 9.5 1.25Z" fill="#64748B"/>
<path fill-rule="evenodd" clip-rule="evenodd" d="M9.5 0.19802C7.47826 0.19802 5.85046 1.69538 5.85046 3.51547V9.86386C5.85046 11.684 7.47828 13.1819 9.5 13.1819C11.5217 13.1819 13.1495 11.684 13.1495 9.86324V3.51547C13.1495 1.69538 11.5217 0.19802 9.5 0.19802ZM5.65349 3.51547C5.65349 1.56823 7.38805 0 9.5 0C11.6119 0 13.3465 1.56823 13.3465 3.51547V9.86324C13.3465 11.8111 11.612 13.38 9.5 13.38C7.38803 13.38 5.65349 11.8111 5.65349 9.86386V3.51547ZM6.73988 3.51547C6.73988 2.24164 7.99777 1.23762 9.5 1.23762C11.0022 1.23762 12.2601 2.24164 12.2601 3.51547V9.86324C12.2601 11.1377 11.0022 12.1417 9.5 12.1417C7.99775 12.1417 6.73988 11.1377 6.73988 9.86324V3.51547ZM9.5 1.43564C8.06682 1.43564 6.93684 2.38707 6.93684 3.51547V9.86324C6.93684 10.9923 8.06684 11.9437 9.5 11.9437C10.9332 11.9437 12.0632 10.9923 12.0632 9.86324V3.51547C12.0632 2.38707 10.9332 1.43564 9.5 1.43564ZM3.64168 9.76361C3.40738 9.76361 3.19697 9.98397 3.19697 10.2834C3.19697 13.3789 5.73336 15.9365 8.96512 16.1934L9.05586 16.2006L9.05527 18.7624H7.52278C7.28848 18.7624 7.07807 18.9827 7.07807 19.2822C7.07807 19.5816 7.28848 19.802 7.52278 19.802H11.4772C11.7115 19.802 11.9219 19.5816 11.9219 19.2822C11.9219 18.9827 11.712 18.7624 11.4772 18.7624H9.94468L9.94527 16.2006L10.036 16.1934C13.2666 15.9365 15.803 13.3789 15.803 10.2834C15.803 9.9839 15.5931 9.76361 15.3583 9.76361C15.1235 9.76361 14.9136 9.9839 14.9136 10.2834C14.9136 12.9903 12.4751 15.1751 9.50054 15.1751C6.52545 15.1751 4.08638 12.9909 4.08638 10.2834C4.08638 9.98397 3.87598 9.76361 3.64168 9.76361ZM3 10.2834C3 9.89846 3.27629 9.56559 3.64168 9.56559C4.00706 9.56559 4.28335 9.89846 4.28335 10.2834C4.28335 12.8618 6.61351 14.9771 9.50054 14.9771C12.387 14.9771 14.7166 12.8612 14.7166 10.2834C14.7166 9.89853 14.9923 9.56559 15.3583 9.56559C15.7243 9.56559 16 9.89853 16 10.2834C16 13.4644 13.4205 16.0786 10.1422 16.383L10.1417 18.5644H11.4772C11.8432 18.5644 12.1189 18.8973 12.1189 19.2822C12.1189 19.6671 11.8426 20 11.4772 20H7.52278C7.1574 20 6.8811 19.6671 6.8811 19.2822C6.8811 18.8972 7.1574 18.5644 7.52278 18.5644H8.85835L8.85885 16.383C5.57948 16.0786 3 13.4644 3 10.2834Z" fill="#64748B"/>
</svg>
