<svg width="14" height="14" viewBox="0 0 14 14" fill="none" xmlns="http://www.w3.org/2000/svg">
<g clip-path="url(#clip0_109_1306)">
<path d="M11.4679 3.8252C11.7007 3.59739 11.7007 3.22805 11.4679 3.00024C11.2351 2.77244 10.8577 2.77244 10.6249 3.00024L4.17461 9.34187C3.9418 9.56968 3.9418 9.93902 4.17461 10.1668C4.40742 10.3946 4.78489 10.3946 5.01764 10.1668L11.4679 3.8252Z" fill="#64748B" stroke="#64748B" stroke-width="0.2"/>
<path d="M13 2.3252C13.2328 2.09747 13.2328 1.72797 13 1.50024C12.7672 1.27252 12.3898 1.27252 12.157 1.50024L12.157 1.50201C11.9242 1.72974 11.9242 2.09924 12.157 2.32698C12.3898 2.55469 12.7672 2.55469 13 2.32698V2.3252Z" fill="#64748B" stroke="#64748B" stroke-width="0.2"/>
<path d="M1.19223 2.91675C1.19223 2.59458 1.45913 2.33341 1.78835 2.33341H7.74953C8.07876 2.33341 8.34563 2.07224 8.34563 1.75008C8.34563 1.42792 8.07876 1.16675 7.74953 1.16675H1.78835C0.800672 1.16675 0 1.95025 0 2.91675V12.2501C0 13.2166 0.800672 14.0001 1.78835 14.0001H11.3262C12.3139 14.0001 13.1146 13.2166 13.1146 12.2501V6.41675C13.1146 6.09457 12.8477 5.83341 12.5185 5.83341C12.1893 5.83341 11.9223 6.09457 11.9223 6.41675V12.2501C11.9223 12.5723 11.6555 12.8334 11.3262 12.8334H1.78835C1.45913 12.8334 1.19223 12.5723 1.19223 12.2501V2.91675Z" fill="#64748B" stroke="#64748B" stroke-width="0.1"/>
</g>
<defs>
<clipPath id="clip0_109_1306">
<rect width="14" height="14" fill="white"/>
</clipPath>
</defs>
</svg>
