<svg width="22" height="22" viewBox="0 0 22 22" fill="none" xmlns="http://www.w3.org/2000/svg">
<mask id="mask0_99_59" style="mask-type:luminance" maskUnits="userSpaceOnUse" x="0" y="0" width="22" height="22">
<path d="M0 1.90735e-06H22V22H0V1.90735e-06Z" fill="white"/>
</mask>
<g mask="url(#mask0_99_59)">
<path d="M16.9687 20.625H3.80078C2.3768 20.625 1.22266 19.4709 1.22266 18.0469V1.375H14.3906V18.0469C14.3906 19.4709 15.5447 20.625 16.9687 20.625Z" stroke="#1E293B" stroke-width="1.3" stroke-miterlimit="10" stroke-linecap="round" stroke-linejoin="round"/>
<path d="M19.9336 5.84375V18.0469C19.9336 19.4709 18.7795 20.625 17.3555 20.625H16.9688C15.5447 20.625 14.3906 19.4709 14.3906 18.0469V5.84375H19.9336Z" stroke="#1E293B" stroke-width="1.3" stroke-miterlimit="10" stroke-linecap="round" stroke-linejoin="round"/>
<path d="M17.1836 20.625H16.9688" stroke="#1E293B" stroke-width="1.3" stroke-miterlimit="10" stroke-linecap="round" stroke-linejoin="round"/>
<path d="M4.01562 5.46875H11.6406" stroke="#1E293B" stroke-width="1.3" stroke-miterlimit="10" stroke-linecap="round" stroke-linejoin="round"/>
<path d="M4.01562 9.21875H11.6406" stroke="#1E293B" stroke-width="1.3" stroke-miterlimit="10" stroke-linecap="round" stroke-linejoin="round"/>
<path d="M4.01562 16.5312H11.6406" stroke="#1E293B" stroke-width="1.3" stroke-miterlimit="10" stroke-linecap="round" stroke-linejoin="round"/>
<path d="M4.01562 13H11.5781" stroke="#1E293B" stroke-width="1.3" stroke-miterlimit="10" stroke-linecap="round" stroke-linejoin="round"/>
</g>
</svg>
