<svg width="16" height="16" viewBox="0 0 16 16" fill="none" xmlns="http://www.w3.org/2000/svg">
<path d="M13.7528 10.6659C13.7009 10.6034 13.6499 10.5409 13.5999 10.4806C12.9124 9.64906 12.4965 9.14719 12.4965 6.79313C12.4965 5.57438 12.2049 4.57437 11.6303 3.82437C11.2065 3.27031 10.6337 2.85 9.87869 2.53938C9.86898 2.53397 9.8603 2.52688 9.85307 2.51844C9.58151 1.60906 8.83838 1 8.00026 1C7.16213 1 6.41932 1.60906 6.14776 2.5175C6.14051 2.52563 6.13195 2.5325 6.12244 2.53781C4.36057 3.26312 3.50432 4.65469 3.50432 6.79219C3.50432 9.14719 3.08901 9.64906 2.40088 10.4797C2.35088 10.54 2.29994 10.6012 2.24807 10.665C2.11407 10.8266 2.02917 11.0232 2.00342 11.2316C1.97766 11.4399 2.01214 11.6513 2.10276 11.8406C2.29557 12.2469 2.70651 12.4991 3.17557 12.4991H12.8284C13.2953 12.4991 13.7034 12.2472 13.8968 11.8428C13.9878 11.6534 14.0226 11.4419 13.9971 11.2333C13.9716 11.0247 13.8868 10.8278 13.7528 10.6659Z" fill="#2563EB"/>
<path d="M7.99962 15C8.45119 14.9996 8.89425 14.8771 9.28179 14.6453C9.66934 14.4135 9.98693 14.0811 10.2009 13.6834C10.2109 13.6644 10.2159 13.643 10.2153 13.6215C10.2147 13.5999 10.2085 13.5789 10.1974 13.5604C10.1863 13.542 10.1706 13.5267 10.1518 13.5161C10.133 13.5055 10.1118 13.5 10.0902 13.5H5.90962C5.88803 13.4999 5.8668 13.5054 5.84797 13.516C5.82915 13.5266 5.81339 13.5418 5.80222 13.5603C5.79105 13.5788 5.78485 13.5998 5.78423 13.6214C5.78361 13.643 5.78859 13.6644 5.79868 13.6834C6.0126 14.0811 6.33013 14.4134 6.71762 14.6452C7.10511 14.877 7.5481 14.9996 7.99962 15Z" fill="#2563EB"/>
</svg>
