<svg width="17" height="17" viewBox="0 0 17 17" fill="none" xmlns="http://www.w3.org/2000/svg">
<path fill-rule="evenodd" clip-rule="evenodd" d="M16.6886 14.9531C16.5757 15.0657 16.4396 15.2096 16.2952 15.3618C15.935 15.744 15.4851 16.2192 15.203 16.4119C13.7192 17.4259 11.7341 16.9407 10.3299 16.3557C8.47749 15.5839 6.46076 14.1612 4.64997 12.3502C2.83747 10.539 1.41499 8.52168 0.643179 6.67037C0.0588039 5.26588 -0.42739 3.28034 0.586734 1.79616C0.779312 1.51393 1.25561 1.06466 1.63738 0.703773C1.79011 0.559871 1.93289 0.423904 2.04578 0.311379C2.2462 0.111953 2.51743 0 2.80017 0C3.08291 0 3.35414 0.111953 3.55456 0.311379L6.28479 3.04081C6.48411 3.24122 6.59599 3.51238 6.59599 3.79503C6.59599 4.07769 6.48411 4.34885 6.28479 4.54926L5.54104 5.29151C5.29265 5.53808 5.13052 5.85827 5.07878 6.20441C5.02703 6.55055 5.08844 6.90415 5.25386 7.21258C6.27685 9.14336 7.85614 10.7224 9.78709 11.745C10.0954 11.9104 10.449 11.9717 10.795 11.9199C11.1411 11.8681 11.4611 11.7059 11.7075 11.4574L12.4494 10.7151C12.6498 10.5157 12.9211 10.4037 13.2038 10.4037C13.4865 10.4037 13.7578 10.5157 13.9582 10.7151L16.6886 13.445C16.8879 13.6454 16.9998 13.9165 16.9998 14.1991C16.9998 14.4817 16.8879 14.7528 16.6886 14.9531Z" fill="#2563EB"/>
</svg>
