<svg width="17" height="17" viewBox="0 0 17 17" fill="none" xmlns="http://www.w3.org/2000/svg">
<path d="M8.5 1.0625C5.13134 1.0625 2.39062 3.77666 2.39062 7.11291C2.39062 9.53859 5.44638 13.337 7.26856 15.3861C7.58041 15.7362 8.02931 15.9375 8.5 15.9375C8.97069 15.9375 9.41959 15.7362 9.73144 15.3861C11.5531 13.3381 14.6094 9.53912 14.6094 7.11291C14.6094 3.77666 11.8687 1.0625 8.5 1.0625ZM8.5 4.49012C9.96466 4.49012 11.1562 5.66684 11.1562 7.11291C11.1562 8.55897 9.96466 9.73569 8.5 9.73569C7.03534 9.73569 5.84375 8.55897 5.84375 7.11291C5.84375 5.66684 7.03534 4.49012 8.5 4.49012Z" fill="#A8B2BF"/>
</svg>
