<svg width="22" height="22" viewBox="0 0 22 22" fill="none" xmlns="http://www.w3.org/2000/svg">
<g clip-path="url(#clip0_99_6)">
<mask id="mask0_99_6" style="mask-type:luminance" maskUnits="userSpaceOnUse" x="0" y="0" width="22" height="22">
<path d="M0 1.90735e-06H22V22H0V1.90735e-06Z" fill="white"/>
</mask>
<g mask="url(#mask0_99_6)">
<path d="M0.859375 11C0.859375 16.6005 5.3995 21.1406 11 21.1406C16.6005 21.1406 21.1406 16.6005 21.1406 11C21.1406 5.3995 16.6005 0.859377 11 0.859377C5.3995 0.859377 0.859375 5.3995 0.859375 11Z" stroke="#1E293B" stroke-width="1.3" stroke-miterlimit="10" stroke-linecap="round" stroke-linejoin="round"/>
<path d="M14.2227 7.69141C14.2227 9.49498 12.7606 10.957 10.957 10.957C9.15346 10.957 7.69141 9.49498 7.69141 7.69141C7.69141 5.88784 9.15346 4.42578 10.957 4.42578C12.7606 4.42578 14.2227 5.88784 14.2227 7.69141Z" stroke="#1E293B" stroke-width="1.3" stroke-miterlimit="10" stroke-linecap="round" stroke-linejoin="round"/>
<path d="M15.8569 16.1562C14.8471 14.9235 13.3132 14.1367 11.5955 14.1367H10.5758C8.85807 14.1367 7.32418 14.9235 6.31445 16.1562" stroke="#1E293B" stroke-width="1.3" stroke-miterlimit="10" stroke-linecap="round" stroke-linejoin="round"/>
</g>
</g>
<defs>
<clipPath id="clip0_99_6">
<rect width="22" height="22" fill="white"/>
</clipPath>
</defs>
</svg>
