<svg width="13" height="14" viewBox="0 0 13 14" fill="none" xmlns="http://www.w3.org/2000/svg">
<g clip-path="url(#clip0_109_1313)">
<path d="M5.99209 13.4922C5.48806 13.4922 5.07803 13.0821 5.07803 12.5781V11.718L5.01059 11.6939C4.50222 11.5126 4.03312 11.2404 3.61636 10.8847L3.5618 10.8382L2.81308 11.2705C2.67412 11.3507 2.51639 11.3931 2.35699 11.3931C2.03097 11.3931 1.72728 11.2179 1.56442 10.9359L1.05661 10.0563C0.804631 9.61989 0.954715 9.05975 1.3912 8.80769L2.12654 8.38316L2.11349 8.3126C2.05809 8.0133 2.03115 7.74753 2.03115 7.5C2.03115 7.25244 2.05809 6.98663 2.11347 6.6874L2.12652 6.61684L1.39118 6.19228C0.954715 5.94028 0.804605 5.38016 1.05658 4.94365L1.56439 4.06409C1.72725 3.7821 2.03097 3.60691 2.35701 3.60691C2.51639 3.60691 2.67409 3.64931 2.81305 3.72952L3.5618 4.16179L3.61636 4.11525C4.03338 3.75953 4.50245 3.48729 5.01056 3.3061L5.07803 3.28203V2.42188C5.07803 1.91787 5.48806 1.50781 5.99209 1.50781H7.00771C7.51174 1.50781 7.92178 1.91787 7.92178 2.42188V3.28203L7.98921 3.30608C8.49733 3.48727 8.9664 3.7595 9.38341 4.11523L9.43798 4.16177L10.1867 3.72949C10.3257 3.64928 10.4834 3.60688 10.6428 3.60688C10.9688 3.60688 11.2725 3.78208 11.4354 4.06409L11.9432 4.94365C12.1952 5.38016 12.0451 5.94028 11.6086 6.19228L10.8733 6.61684L10.8863 6.6874C10.9417 6.98663 10.9687 7.25244 10.9687 7.5C10.9687 7.74753 10.9417 8.0133 10.8863 8.31253L10.8733 8.38309L11.6086 8.80764C12.0451 9.0597 12.1952 9.61984 11.9432 10.0563L11.4354 10.9358C11.2726 11.2178 10.9689 11.3931 10.6429 11.3931C10.6429 11.3931 10.6429 11.3931 10.6428 11.3931C10.4834 11.3931 10.3257 11.3506 10.1867 11.2704L9.43803 10.8381L9.38346 10.8847C8.9667 11.2403 8.49761 11.5126 7.98924 11.6939L7.92178 11.718V12.5781C7.92178 13.0821 7.51174 13.4922 7.00771 13.4922H5.99209Z" stroke="#64748B" stroke-width="1.3" stroke-miterlimit="10" stroke-linecap="round" stroke-linejoin="round"/>
<path d="M6.5 9.53125C7.62183 9.53125 8.53125 8.62183 8.53125 7.5C8.53125 6.37817 7.62183 5.46875 6.5 5.46875C5.37817 5.46875 4.46875 6.37817 4.46875 7.5C4.46875 8.62183 5.37817 9.53125 6.5 9.53125Z" stroke="#64748B" stroke-width="1.3" stroke-miterlimit="10" stroke-linecap="round" stroke-linejoin="round"/>
</g>
<defs>
<clipPath id="clip0_109_1313">
<rect width="13" height="14" fill="white"/>
</clipPath>
</defs>
</svg>
