<svg width="22" height="22" viewBox="0 0 22 22" fill="none" xmlns="http://www.w3.org/2000/svg">
<g clip-path="url(#clip0_99_123)">
<mask id="mask0_99_123" style="mask-type:luminance" maskUnits="userSpaceOnUse" x="0" y="0" width="22" height="22">
<path d="M0 1.90735e-06H22V22H0V1.90735e-06Z" fill="white"/>
</mask>
<g mask="url(#mask0_99_123)">
<path d="M17.4844 12.5358L18.3897 14.3702L20.4141 14.6643L18.9492 16.0922L19.295 18.1084L17.4844 17.1565L15.6737 18.1084L16.0195 16.0922L14.5547 14.6643L16.5791 14.3702L17.4844 12.5358Z" stroke="#3D4652" stroke-width="1.3" stroke-miterlimit="10" stroke-linecap="round" stroke-linejoin="round"/>
<path d="M4.51562 12.536L3.61031 14.3704L1.58594 14.6646L3.05078 16.0924L2.70496 18.1086L4.51562 17.1567L6.32629 18.1086L5.98047 16.0924L7.44531 14.6646L5.42094 14.3704L4.51562 12.536Z" stroke="#3D4652" stroke-width="1.3" stroke-miterlimit="10" stroke-linecap="round" stroke-linejoin="round"/>
<path d="M8.46094 4.125C8.46094 5.52727 9.5977 6.66406 11 6.66406C12.4023 6.66406 13.5391 5.52727 13.5391 4.125C13.5391 2.72273 12.4023 1.58594 11 1.58594C9.5977 1.58594 8.46094 2.72273 8.46094 4.125Z" stroke="#3D4652" stroke-width="1.3" stroke-miterlimit="10" stroke-linecap="round" stroke-linejoin="round"/>
<path d="M7.09375 11.7422H14.9062V10.5703C14.9062 8.41293 13.1574 6.66406 11 6.66406C8.84262 6.66406 7.09375 8.41293 7.09375 10.5703V11.7422Z" stroke="#3D4652" stroke-width="1.3" stroke-miterlimit="10" stroke-linecap="round" stroke-linejoin="round"/>
<path d="M11 14.8414L11.9053 16.6758L13.9297 16.97L12.4648 18.3979L12.8107 20.4141L11 19.4621L9.18934 20.4141L9.53516 18.3979L8.07031 16.97L10.0947 16.6758L11 14.8414Z" stroke="#3D4652" stroke-width="1.3" stroke-miterlimit="10" stroke-linecap="round" stroke-linejoin="round"/>
</g>
</g>
<defs>
<clipPath id="clip0_99_123">
<rect width="22" height="22" fill="white"/>
</clipPath>
</defs>
</svg>
