<svg width="16" height="16" viewBox="0 0 16 16" fill="none" xmlns="http://www.w3.org/2000/svg">
<path d="M13.707 12.293L11.1685 9.7545C11.693 8.964 12 8.0175 12 7C12 4.243 9.757 2 7 2C4.243 2 2 4.243 2 7C2 9.757 4.243 12 7 12C8.0175 12 8.964 11.693 9.7545 11.1685L12.293 13.707C12.683 14.0975 13.317 14.0975 13.707 13.707C14.0975 13.3165 14.0975 12.6835 13.707 12.293ZM3.5 7C3.5 5.07 5.07 3.5 7 3.5C8.93 3.5 10.5 5.07 10.5 7C10.5 8.93 8.93 10.5 7 10.5C5.07 10.5 3.5 8.93 3.5 7Z" fill="#64748B"/>
</svg>
