<svg width="16" height="14" viewBox="0 0 16 14" fill="none" xmlns="http://www.w3.org/2000/svg">
<path d="M4.8861 11.109C4.7671 11.109 4.653 11.0621 4.569 10.9781L1.475 7.88408C1.3 7.70908 1.3 7.42558 1.475 7.25058C1.65 7.07558 1.9335 7.07558 2.1085 7.25058L4.8861 10.0275L11.891 3.02188C12.066 2.84687 12.3495 2.84687 12.5245 3.02188C12.6995 3.19688 12.6995 3.48037 12.5245 3.65538L5.2025 10.9774C5.1185 11.0621 5.0051 11.109 4.8861 11.109Z" fill="#2563EB"/>
<path d="M7.54228 11.109C7.42328 11.109 7.30918 11.0621 7.22518 10.9781C7.05018 10.8031 7.04976 10.5196 7.22476 10.3446C7.39976 10.1696 7.26771 10.3021 7.54228 10.0275L14.5472 3.02188C14.7222 2.84687 15.0057 2.84687 15.1807 3.02188C15.3557 3.19688 15.3557 3.48037 15.1807 3.65538L7.85868 10.9774C7.77468 11.0621 7.66128 11.109 7.54228 11.109Z" fill="#2563EB"/>
</svg>
