<svg width="22" height="22" viewBox="0 0 22 22" fill="none" xmlns="http://www.w3.org/2000/svg">
<g clip-path="url(#clip0_99_142)">
<path d="M10.1403 21.1406C9.28737 21.1406 8.59347 20.4467 8.59347 19.5938V18.1381L8.47934 18.0974C7.61902 17.7906 6.82518 17.3299 6.11989 16.728L6.02755 16.6492L4.76048 17.3808C4.52532 17.5166 4.25839 17.5884 3.98864 17.5884C3.43692 17.5884 2.92297 17.2919 2.64737 16.8146L1.78799 15.3261C1.36157 14.5875 1.61556 13.6396 2.35423 13.213L3.59865 12.4946L3.57657 12.3752C3.48281 11.8687 3.43722 11.4189 3.43722 11C3.43722 10.5811 3.48281 10.1312 3.57652 9.62483L3.59861 9.50542L2.35419 8.78694C1.61556 8.36047 1.36153 7.41258 1.78795 6.67386L2.64732 5.18538C2.92293 4.70817 3.43692 4.41169 3.98868 4.41169C4.25839 4.41169 4.52527 4.48345 4.76044 4.61918L6.02755 5.35073L6.11989 5.27196C6.8256 4.66997 7.61941 4.20926 8.4793 3.90264L8.59347 3.8619V2.40625C8.59347 1.55332 9.28737 0.859375 10.1403 0.859375H11.8591C12.7121 0.859375 13.406 1.55332 13.406 2.40625V3.8619L13.5201 3.90259C14.38 4.20922 15.1738 4.66993 15.8795 5.27192L15.9718 5.35068L17.239 4.61914C17.4741 4.4834 17.741 4.41164 18.0107 4.41164C18.5625 4.41164 19.0765 4.70813 19.3521 5.18538L20.2114 6.67386C20.6379 7.41258 20.3839 8.36047 19.6452 8.78694L18.4008 9.50542L18.4229 9.62483C18.5166 10.1312 18.5622 10.5811 18.5622 11C18.5622 11.4189 18.5166 11.8687 18.4229 12.375L18.4008 12.4945L19.6452 13.2129C20.3839 13.6395 20.6379 14.5874 20.2115 15.326L19.3521 16.8145C19.0765 17.2917 18.5626 17.5883 18.011 17.5883C18.011 17.5883 18.0109 17.5883 18.0108 17.5883C17.741 17.5883 17.4741 17.5165 17.239 17.3807L15.9719 16.6491L15.8796 16.7279C15.1743 17.3298 14.3805 17.7905 13.5201 18.0973L13.406 18.1381V19.5938C13.406 20.4467 12.7121 21.1406 11.8591 21.1406H10.1403Z" stroke="#3D4652" stroke-width="1.3" stroke-miterlimit="10" stroke-linecap="round" stroke-linejoin="round"/>
<path d="M11 14.4375C12.8985 14.4375 14.4375 12.8985 14.4375 11C14.4375 9.10152 12.8985 7.5625 11 7.5625C9.10152 7.5625 7.5625 9.10152 7.5625 11C7.5625 12.8985 9.10152 14.4375 11 14.4375Z" stroke="#3D4652" stroke-width="1.3" stroke-miterlimit="10" stroke-linecap="round" stroke-linejoin="round"/>
</g>
<defs>
<clipPath id="clip0_99_142">
<rect width="22" height="22" fill="white"/>
</clipPath>
</defs>
</svg>
