<svg width="18" height="18" viewBox="0 0 18 18" fill="none" xmlns="http://www.w3.org/2000/svg">
<path d="M10.6031 1.93855C10.3657 1.70118 9.95033 1.58249 9.59427 1.76052C9.2382 1.87921 9.06017 2.23527 9.06017 2.59134V5.61787C6.44905 5.43984 4.37202 6.09262 2.94777 7.45752C1.28614 9.11915 0.514671 11.7303 0.752046 15.2316C0.752046 15.647 1.10811 16.0624 1.52351 16.1217C1.87958 16.1811 2.23564 16.003 2.41367 15.647C3.06645 14.2821 4.43136 12.5017 9.06017 12.7985V15.4096C9.06017 15.7657 9.29755 16.1217 9.59427 16.2404C9.71295 16.2997 9.83164 16.2997 9.95033 16.2997C10.1877 16.2997 10.4251 16.1811 10.6031 16.0624L17.0122 9.65324C17.1903 9.47521 17.2496 9.23784 17.2496 9.00046C17.2496 8.76309 17.1309 8.52571 17.0122 8.34768L10.6031 1.93855ZM10.247 14.7568V12.5611C10.247 12.0863 9.89098 11.6709 9.47558 11.6709C8.94148 11.6116 8.46674 11.6116 7.99199 11.6116C5.08414 11.6116 3.06645 12.4424 1.87958 14.2227C1.87958 11.5522 2.53236 9.5939 3.77858 8.34768C5.0248 7.16081 6.86445 6.62671 9.29755 6.86409C9.53492 6.86409 9.7723 6.80474 9.95033 6.62671C10.1284 6.44868 10.247 6.21131 10.247 5.97393V3.24412L16.0034 9.00046L10.247 14.7568Z" fill="#64748B" stroke="#64748B" stroke-width="0.4"/>
</svg>
