<svg width="20" height="20" viewBox="0 0 20 20" fill="none" xmlns="http://www.w3.org/2000/svg">
<g clip-path="url(#clip0_109_1272)">
<path d="M17.0711 2.92891C15.1823 1.04021 12.6711 0 10 0C7.32891 0 4.81769 1.04021 2.92891 2.92891C1.04021 4.81769 0 7.32891 0 10C0 12.6711 1.04021 15.1823 2.92891 17.0711C4.81769 18.9598 7.32891 20 10 20C12.6711 20 15.1823 18.9598 17.0711 17.0711C18.9598 15.1823 20 12.6711 20 10C20 7.32891 18.9598 4.81769 17.0711 2.92891ZM10 18.7629C5.16812 18.7629 1.23711 14.8319 1.23711 10C1.23711 5.16812 5.16812 1.23711 10 1.23711C14.8319 1.23711 18.7629 5.16812 18.7629 10C18.7629 14.8319 14.8319 18.7629 10 18.7629Z" fill="#64748B"/>
<path d="M13.1345 9.54578C13.9303 9.54578 14.5778 8.89831 14.5778 8.10248C14.5778 7.30664 13.9303 6.65918 13.1345 6.65918C12.3386 6.65918 11.6912 7.30664 11.6912 8.10248C11.6912 8.89831 12.3386 9.54578 13.1345 9.54578Z" fill="#64748B"/>
<path d="M6.86517 9.54578C7.66101 9.54578 8.30847 8.89831 8.30847 8.10248C8.30847 7.30664 7.66101 6.65918 6.86517 6.65918C6.06934 6.65918 5.42188 7.30664 5.42188 8.10248C5.42188 8.89831 6.06938 9.54578 6.86517 9.54578Z" fill="#64748B"/>
<path d="M9.99992 14.6389C8.06545 14.6389 6.31539 13.4175 5.64512 11.5996L4.48438 12.0276C5.33308 14.3295 7.54961 15.876 9.99992 15.876C12.4502 15.876 14.6668 14.3295 15.5155 12.0276L14.3547 11.5996C13.6845 13.4175 11.9344 14.6389 9.99992 14.6389Z" fill="#64748B"/>
</g>
<defs>
<clipPath id="clip0_109_1272">
<rect width="20" height="20" fill="white"/>
</clipPath>
</defs>
</svg>
