<svg width="60" height="60" viewBox="0 0 60 60" fill="none" xmlns="http://www.w3.org/2000/svg">
<g clip-path="url(#clip0_99_160)">
<mask id="mask0_99_160" style="mask-type:alpha" maskUnits="userSpaceOnUse" x="0" y="0" width="60" height="60">
<circle cx="30" cy="30" r="30" fill="#D3EACE"/>
</mask>
<g mask="url(#mask0_99_160)">
<path d="M52.7942 55.6335C43.5607 61.434 16.6898 61.4078 7.49121 55.6335C8.25995 55.2492 10.5836 53.9738 11.6406 53.371C17.2402 50.1301 16.4714 53.3273 23.1542 46.8979V41.0625H37.1312V46.8979C38.5136 48.2501 40.01 49.4806 41.6039 50.5756C42.417 51.0526 43.3021 51.3948 44.2246 51.5889C46.985 52.0781 49.2738 53.8864 52.7942 55.6335Z" fill="#B392FF"/>
<path d="M37.1313 36.4158V43.2296C34.598 45.7804 34.4495 48.1914 31.6279 48.1914H28.6577C25.8361 48.1914 25.6876 45.7804 23.1543 43.2296V35.5422L37.1313 36.4158Z" fill="#9C78EE"/>
<path d="M17.0391 20.6034C17.0391 14.8379 22.4552 9.33447 29.0156 9.33447C35.5761 9.33447 38.1356 13.7896 38.1356 13.7896H38.4152C38.4152 13.7896 44.1195 14.0517 44.1195 21.3897C44.1108 23.3203 43.6278 25.2191 42.7131 26.9193L41.4989 28.5529H18.7862C17.8602 25.8274 17.0391 23.7046 17.0391 20.6034Z" fill="#7441EB"/>
<path d="M18.7861 20.6039C18.7861 14.8384 23.5034 9.33491 29.2165 9.33491C32.4679 9.27252 35.4976 10.978 37.131 13.7901H37.3756C37.3756 13.7901 42.3724 14.0522 42.3724 21.3901C42.3676 23.2999 41.9505 25.1861 41.1494 26.9197L40.0924 28.5533H20.3061C19.4937 25.7929 18.7861 23.6876 18.7861 20.6039Z" fill="#8B5CF6"/>
<path d="M40.0835 28.3875C40.2019 27.3961 41.1013 26.6883 42.0927 26.8063C43.6477 26.5704 43.4293 29.7065 43.1235 31.2265C42.9386 33.1449 41.683 34.7931 39.8826 35.4808H20.4021C18.6043 34.7897 17.3501 33.1434 17.1612 31.2265C16.8555 29.6978 16.6458 26.5704 18.192 26.8063C19.9916 26.8063 20.0702 28.1778 20.0702 28.1778L40.0835 28.3875Z" fill="#9C78EE"/>
<path d="M23.7482 59.7485C18.9174 59.3554 11.597 58.2547 7.49121 55.634C8.25995 55.2497 10.5836 53.9743 11.6406 53.3715C15.4756 51.1352 15.6066 52.0437 17.974 50.9255C18.1836 52.7251 19.2232 58.3421 23.7482 59.7485Z" fill="#8B5CF6"/>
<path d="M52.7941 55.634C48.6884 58.2023 41.3679 59.338 36.5371 59.7311C41.0622 58.3246 42.1017 52.7425 42.3114 50.9255C42.9166 51.2199 43.5564 51.4371 44.2157 51.572C46.9849 52.0786 49.2737 53.8869 52.7941 55.634Z" fill="#8B5CF6"/>
<path d="M20.0011 25.6612C20.0884 23.783 21.5473 22.9619 23.6002 22.9619H28.1602C28.1602 22.9619 34.1441 22.4377 36.7124 18.2446C36.7124 18.2446 39.5252 19.7996 40.0494 27.7752C40.1367 29.1467 40.128 30.5444 40.128 30.3085C39.9472 31.1716 39.8391 32.0482 39.8048 32.9292C39.8048 35.6286 40.5473 37.9348 37.5772 40.6253C34.6071 43.3159 34.6071 46.024 31.6282 46.024H28.6581C25.6792 46.024 25.6792 43.3334 22.7091 40.6341C19.2149 37.4281 20.962 34.9297 20.3068 31.0948C20.3854 31.8373 19.9137 27.2773 20.0011 25.6612Z" fill="#B392FF"/>
</g>
</g>
<circle cx="30" cy="30" r="30" fill="#EDF2F8"/>
<g clip-path="url(#clip1_99_160)">
<mask id="mask1_99_160" style="mask-type:alpha" maskUnits="userSpaceOnUse" x="0" y="0" width="60" height="60">
<circle cx="30" cy="30" r="30" fill="#EDF2F8"/>
</mask>
<g mask="url(#mask1_99_160)">
<path d="M51.9142 55.6335C42.8345 61.434 16.4115 61.4078 7.36621 55.6335C8.12213 55.2492 10.4071 53.9738 11.4465 53.371C16.9527 50.1301 16.1968 53.3273 22.7682 46.8979V41.0625H36.5122V46.8979C37.8716 48.2501 39.3431 49.4806 40.9103 50.5756C41.7099 51.0526 42.5802 51.3948 43.4873 51.5889C46.2018 52.0781 48.4524 53.8864 51.9142 55.6335Z" fill="#C7DBF2"/>
<path d="M36.5126 36.4156V43.2294C34.0215 45.7802 33.8755 48.1912 31.1009 48.1912H28.1803C25.4057 48.1912 25.2597 45.7802 22.7686 43.2294V35.542L36.5126 36.4156Z" fill="#B3CAE5"/>
<path d="M16.7549 20.6032C16.7549 14.8377 22.0807 9.33423 28.5318 9.33423C34.983 9.33423 37.4998 13.7894 37.4998 13.7894H37.7747C37.7747 13.7894 43.384 14.0515 43.384 21.3894C43.3754 23.32 42.9005 25.2189 42.001 26.9191L40.807 28.5526H18.4729C17.5623 25.8271 16.7549 23.7044 16.7549 20.6032Z" fill="#7AACE7"/>
<path d="M18.4727 20.6036C18.4727 14.8381 23.1113 9.33466 28.7292 9.33466C31.9264 9.27228 34.9056 10.9777 36.5118 13.7898H36.7523C36.7523 13.7898 41.6658 14.0519 41.6658 21.3898C41.6611 23.2996 41.2509 25.1859 40.4632 26.9195L39.4238 28.5531H19.9673C19.1684 25.7926 18.4727 23.6873 18.4727 20.6036Z" fill="#95BFEF"/>
<path d="M39.4157 28.3872C39.5321 27.3959 40.4165 26.6881 41.3914 26.8061C42.9204 26.5702 42.7057 29.7063 42.405 31.2263C42.2231 33.1447 40.9885 34.7928 39.2181 35.4805H20.0623C18.2944 34.7894 17.0611 33.1431 16.8754 31.2263C16.5747 29.6976 16.3686 26.5702 17.889 26.8061C19.6586 26.8061 19.7359 28.1776 19.7359 28.1776L39.4157 28.3872Z" fill="#B3CAE5"/>
<path d="M23.3523 59.7488C18.602 59.3557 11.4035 58.255 7.36621 55.6343C8.12213 55.2499 10.4071 53.9745 11.4465 53.3718C15.2175 51.1354 15.3464 52.0439 17.6743 50.9258C17.8804 52.7253 18.9026 58.3423 23.3523 59.7488Z" fill="#95BFEF"/>
<path d="M51.9138 55.6343C47.8765 58.2026 40.678 59.3382 35.9277 59.7313C40.3774 58.3249 41.3996 52.7428 41.6058 50.9258C42.2009 51.2201 42.83 51.4373 43.4784 51.5722C46.2014 52.0789 48.452 53.8872 51.9138 55.6343Z" fill="#95BFEF"/>
<path d="M19.6669 25.6607C19.7528 23.7825 21.1873 22.9614 23.206 22.9614H27.69C27.69 22.9614 33.5742 22.4372 36.0997 18.2441C36.0997 18.2441 38.8657 19.7991 39.3811 27.7747C39.467 29.1462 39.4584 30.5439 39.4584 30.3081C39.2806 31.1711 39.1743 32.0477 39.1405 32.9288C39.1405 35.6281 39.8707 37.9343 36.9501 40.6248C34.0295 43.3154 34.0295 46.0235 31.1003 46.0235H28.1796C25.2504 46.0235 25.2504 43.3329 22.3298 40.6336C18.8938 37.4276 20.6118 34.9292 19.9676 31.0943C20.0449 31.8368 19.581 27.2768 19.6669 25.6607Z" fill="#C7DBF2"/>
</g>
</g>
<defs>
<clipPath id="clip0_99_160">
<rect width="60" height="60" fill="white"/>
</clipPath>
<clipPath id="clip1_99_160">
<rect width="60" height="60" fill="white"/>
</clipPath>
</defs>
</svg>
